# xmcd CD database file
#
# Track frame offsets:
#	150
#	17325
#	25277
#	39251
#	47440
#	53344
#	69297
#	81018
#	95557
#	107793
#	121767
#	127612
#
# Disc length: 1873 seconds
#
# Revision: 0
# Processed by: cddbd v1.5.1PL0 Copyright (c) Steve Scherf et al.
# Submitted via: CDex 1.51
#
DISCID=7c074f0c
DTITLE=ダイソー - 青春時代 歌声喫茶愛唱歌集
DYEAR=2005
DGENRE=Other
TTITLE0=勝利を我等に（英語歌入り）
TTITLE1=聖者が街にやってくる（英語歌入り）
TTITLE2=峠の我が家（英語歌入り）
TTITLE3=埴生の宿（英語歌入り）
TTITLE4=おお、スザンヌ（英語歌入り）
TTITLE5=ダニー・ボーイ（英語歌入り）
TTITLE6=リパブリック讃歌（英語歌入り）
TTITLE7=マイム・マイム（英語歌入り）
TTITLE8=クレメンタイン（英語歌入り）
TTITLE9=ビル・ベイリー（かえっておいでよ）
TTITLE10=草競馬
TTITLE11=ダウン・バイ・リバーサイド
EXTD=YEAR: 2005
EXTT0=
EXTT1=
EXTT2=
EXTT3=
EXTT4=
EXTT5=
EXTT6=
EXTT7=
EXTT8=
EXTT9=
EXTT10=
EXTT11=
PLAYORDER=
